<?xml version="1.0"?>
<svg width="100" height="100" xmlns="http://www.w3.org/2000/svg" xmlns:svg="http://www.w3.org/2000/svg">
 <!-- Created with SVG-edit - https://github.com/SVG-Edit/svgedit-->

 <g class="layer">
  <title>Layer 1</title>
  <rect fill="#e0e0e0" height="100" id="svg_3" stroke="#000000" stroke-width="0" width="100" x="0" y="0"/>
  <path d="m15,23.23l0,0c0,-4.55 3.6,-8.23 8.04,-8.23l3.65,0l0,0l17.54,0l32.88,0c2.13,0 4.18,0.87 5.68,2.41c1.51,1.54 2.35,3.64 2.35,5.82l0,20.57l0,0l0,12.34l0,0c0,4.55 -3.6,8.23 -8.04,8.23l-32.88,0l-22.91,20.93l5.37,-20.93l-3.65,0c-4.44,0 -8.04,-3.68 -8.04,-8.23l0,0l0,-12.34l0,0z" fill="#696969" id="svg_1" stroke="#000000" stroke-width="0"/>
 </g>
</svg>